/* XPM */
static char * hide_pressed_xpm[] = {
"11 11 3 1",
" 	c None",
".	c #000000",
"+	c #666666",
"...........",
"...........",
"...........",
"...........",
"...+++++...",
"...+++++...",
"...+++++...",
"...........",
"...........",
"...........",
"..........."};
