/* XPM */
static char * shade_active_xpm[] = {
"11 11 3 1",
" 	c None",
".	c #000000",
"+	c #666666",
"...........",
"...........",
"...........",
".....+.....",
"....+++....",
"...+++++...",
"..+++.+++..",
"..++...++..",
"...........",
"...........",
"..........."};
